#define b3ea764b21054a969a5060dacb785105d2L5GhENETEEiNhv_width 128
#define b3ea764b21054a969a5060dacb785105d2L5GhENETEEiNhv_height 64
static char b3ea764b21054a969a5060dacb785105d2L5GhENETEEiNhv_bits[] = {
  0x00, 0x00, 0x00, 0x00, 0x00, 0x00, 0x00, 0x00, 0x00, 0x00, 0x00, 0x00, 
  0x00, 0x00, 0x00, 0x00, 0x00, 0x00, 0x00, 0x00, 0x00, 0x00, 0x00, 0x00, 
  0x00, 0x00, 0x00, 0x00, 0x00, 0x00, 0x00, 0x00, 0x00, 0x00, 0x00, 0x00, 
  0x00, 0x00, 0x00, 0x00, 0x00, 0x00, 0x00, 0x00, 0x00, 0x00, 0x00, 0x00, 
  0x00, 0x00, 0x00, 0x00, 0x00, 0x00, 0x00, 0x00, 0x00, 0x00, 0x00, 0x00, 
  0x00, 0x00, 0x00, 0x00, 0x00, 0x40, 0x40, 0x00, 0x00, 0x00, 0x01, 0x01, 
  0x00, 0x08, 0xC0, 0x01, 0x00, 0x00, 0x00, 0x00, 0x00, 0x80, 0x20, 0x00, 
  0x00, 0x00, 0x82, 0x00, 0x00, 0x08, 0x30, 0x02, 0x00, 0x00, 0x00, 0x00, 
  0x00, 0x80, 0x20, 0x00, 0x00, 0x00, 0x82, 0x00, 0x00, 0x00, 0x10, 0x00, 
  0x40, 0x00, 0x00, 0x00, 0x00, 0x80, 0x20, 0x00, 0x00, 0x00, 0x82, 0x00, 
  0x00, 0x00, 0x10, 0x00, 0x40, 0x00, 0x00, 0x00, 0x00, 0x00, 0x11, 0x9E, 
  0x61, 0x41, 0x44, 0x78, 0x74, 0x08, 0x20, 0xC0, 0xE1, 0x05, 0xC9, 0x01, 
  0x00, 0x00, 0x11, 0x21, 0x21, 0x41, 0x44, 0x84, 0x8C, 0x08, 0x60, 0x20, 
  0x42, 0x04, 0x39, 0x02, 0x00, 0x00, 0x11, 0x20, 0x21, 0x41, 0x44, 0x80, 
  0x04, 0x09, 0x80, 0x11, 0x44, 0x04, 0x09, 0x04, 0x00, 0x00, 0x09, 0x3C, 
  0x12, 0x41, 0x24, 0xF0, 0x04, 0x89, 0x07, 0xF2, 0x47, 0x04, 0x09, 0x04, 
  0x00, 0x00, 0x0A, 0x22, 0x12, 0x41, 0x28, 0x88, 0x04, 0x09, 0x00, 0x12, 
  0x40, 0x04, 0x09, 0x04, 0x00, 0x00, 0x0A, 0x21, 0x14, 0x41, 0x28, 0x84, 
  0x04, 0x09, 0x00, 0x12, 0x40, 0x04, 0x09, 0x04, 0x00, 0x00, 0x0A, 0x31, 
  0x0C, 0x61, 0x28, 0xC4, 0x04, 0x09, 0x10, 0x21, 0x40, 0x84, 0x19, 0x02, 
  0x00, 0x00, 0x04, 0x2E, 0x08, 0x5E, 0x10, 0xB8, 0x04, 0x09, 0xE0, 0xC0, 
  0x87, 0x79, 0xE9, 0x01, 0x00, 0x00, 0x00, 0x00, 0x04, 0x00, 0x00, 0x00, 
  0x00, 0x00, 0x00, 0x00, 0x00, 0x00, 0x08, 0x00, 0x00, 0x00, 0x00, 0x00, 
  0x04, 0x00, 0x00, 0x00, 0x00, 0x00, 0x00, 0x00, 0x00, 0x00, 0x08, 0x00, 
  0x00, 0x00, 0x00, 0x00, 0x03, 0x00, 0x00, 0x00, 0x00, 0x00, 0x00, 0x00, 
  0x00, 0x00, 0x08, 0x00, 0x00, 0x00, 0x3E, 0x00, 0x01, 0x00, 0x00, 0x00, 
  0x00, 0x00, 0x00, 0x00, 0x00, 0x00, 0x00, 0x00, 0x00, 0xE0, 0xFF, 0x01, 
  0x00, 0xC6, 0x07, 0x00, 0x00, 0x00, 0x04, 0x03, 0x20, 0x30, 0x00, 0x00, 
  0x00, 0xF0, 0xFF, 0x07, 0x00, 0x46, 0x08, 0x00, 0x00, 0x00, 0x00, 0x02, 
  0x20, 0x20, 0x00, 0x00, 0x00, 0xFC, 0xFF, 0x0F, 0x00, 0x45, 0x08, 0xE0, 
  0x85, 0x3C, 0x06, 0x82, 0xE7, 0x23, 0x78, 0x00, 0x00, 0xFE, 0x80, 0x3F, 
  0x00, 0x49, 0x08, 0x10, 0x46, 0x42, 0x04, 0x42, 0x28, 0x24, 0x84, 0x00, 
  0x00, 0x1F, 0x00, 0x7E, 0x00, 0xC9, 0x07, 0xE0, 0x4B, 0x7C, 0x04, 0x82, 
  0x2F, 0x24, 0xFC, 0x00, 0x80, 0x0F, 0x7F, 0x78, 0x80, 0x4F, 0x00, 0x10, 
  0x4A, 0x42, 0x04, 0x42, 0x28, 0x24, 0x04, 0x00, 0x80, 0xC7, 0xFF, 0xF1, 
  0x80, 0x50, 0x00, 0x10, 0x33, 0x62, 0x04, 0x42, 0x2C, 0x24, 0x8C, 0x00, 
  0xC0, 0xE3, 0xFF, 0xE3, 0x81, 0x50, 0x00, 0xE0, 0x32, 0x5C, 0x0E, 0x87, 
  0xEB, 0x73, 0x78, 0x00, 0xC0, 0xF1, 0xFF, 0xE7, 0x01, 0x00, 0x00, 0x00, 
  0x00, 0x00, 0x00, 0x00, 0x00, 0x00, 0x00, 0x00, 0xE0, 0xF1, 0xC1, 0xC7, 
  0x01, 0x00, 0x00, 0x00, 0x00, 0x00, 0x00, 0x00, 0x00, 0x00, 0x00, 0x00, 
  0xE0, 0x78, 0x80, 0xCF, 0x03, 0x00, 0x00, 0x00, 0x00, 0x00, 0x00, 0x00, 
  0x00, 0x00, 0x00, 0x00, 0xE0, 0x78, 0x1E, 0xCF, 0x03, 0x00, 0x00, 0x00, 
  0x00, 0x00, 0x00, 0x00, 0x00, 0x00, 0x00, 0x00, 0xE0, 0x38, 0x3F, 0xDF, 
  0x03, 0x00, 0x00, 0x00, 0x00, 0x00, 0x00, 0x00, 0x00, 0x00, 0x00, 0x00, 
  0xF0, 0x3C, 0x7F, 0x9E, 0x03, 0x00, 0x00, 0x00, 0x00, 0x00, 0x00, 0x00, 
  0x00, 0x00, 0x00, 0x00, 0xF0, 0x3C, 0x7F, 0x9E, 0x03, 0x30, 0x78, 0x3C, 
  0x00, 0x0C, 0x1C, 0x0F, 0x00, 0x06, 0x80, 0x01, 0xF0, 0x3C, 0x7F, 0xDF, 
  0x03, 0x2C, 0xCC, 0x62, 0x00, 0x0B, 0xA2, 0x18, 0x00, 0x06, 0x60, 0x01, 
  0xE0, 0x78, 0x3E, 0xCF, 0x03, 0x20, 0x84, 0x40, 0x00, 0x08, 0x81, 0x10, 
  0x00, 0x05, 0x00, 0x01, 0xE0, 0x78, 0x0C, 0xCF, 0x03, 0x20, 0x84, 0x60, 
  0x00, 0x08, 0x9D, 0x19, 0x80, 0x04, 0x00, 0x01, 0xE0, 0xF1, 0xC0, 0xCF, 
  0x03, 0x20, 0xCC, 0x20, 0x00, 0x08, 0x23, 0x0F, 0x80, 0x04, 0x00, 0x01, 
  0xE0, 0xF1, 0xC1, 0xE7, 0x01, 0x20, 0xB8, 0x18, 0x00, 0x08, 0xA1, 0x10, 
  0x40, 0x04, 0x00, 0x01, 0xC0, 0xE3, 0x81, 0xE3, 0x01, 0x20, 0x80, 0x0C, 
  0x00, 0x08, 0xA1, 0x10, 0xC0, 0x0F, 0x00, 0x01, 0xC0, 0xC3, 0x00, 0xF1, 
  0x00, 0x20, 0x44, 0x06, 0x18, 0x08, 0xB2, 0x10, 0x06, 0x04, 0x03, 0x01, 
  0x80, 0x87, 0x00, 0xF8, 0x00, 0xFC, 0x38, 0x7E, 0x18, 0x3F, 0x1E, 0x0F, 
  0x06, 0x04, 0xE3, 0x07, 0x00, 0x1F, 0x00, 0x7C, 0x00, 0x00, 0x00, 0x00, 
  0x00, 0x00, 0x00, 0x00, 0x00, 0x00, 0x00, 0x00, 0x00, 0x3E, 0x00, 0x3C, 
  0x00, 0x00, 0x00, 0x00, 0x00, 0x00, 0x00, 0x00, 0x00, 0x00, 0x00, 0x00, 
  0x00, 0x3C, 0x00, 0x18, 0x00, 0x00, 0x00, 0x00, 0x00, 0x00, 0x00, 0x00, 
  0x00, 0x00, 0x00, 0x00, 0x00, 0x38, 0x00, 0x00, 0x00, 0x00, 0x00, 0x00, 
  0x00, 0x00, 0x00, 0x00, 0x00, 0x00, 0x00, 0x00, 0x00, 0x00, 0x00, 0x00, 
  0x00, 0x00, 0x00, 0x00, 0x00, 0x00, 0x00, 0x00, 0x00, 0x00, 0x00, 0x00, 
  0x00, 0x00, 0xF0, 0x00, 0x00, 0x00, 0x00, 0x00, 0x00, 0x00, 0x00, 0x00, 
  0x00, 0x00, 0x00, 0x00, 0x00, 0x00, 0xF8, 0x01, 0x00, 0x00, 0x00, 0x00, 
  0x00, 0x00, 0x00, 0x00, 0x00, 0x00, 0x00, 0x00, 0x00, 0x00, 0xF8, 0x01, 
  0x00, 0x00, 0x00, 0x00, 0x00, 0x00, 0x00, 0x08, 0x08, 0x00, 0x00, 0x00, 
  0x00, 0x00, 0x98, 0x01, 0x00, 0x00, 0x00, 0x00, 0x00, 0x00, 0x00, 0x08, 
  0x00, 0x00, 0x00, 0x00, 0x00, 0x00, 0xFE, 0x01, 0x00, 0x00, 0x7C, 0x9E, 
  0x4E, 0xC7, 0xE3, 0x7F, 0x0C, 0x1D, 0x1F, 0x00, 0x00, 0xFC, 0xFF, 0x01, 
  0x00, 0x00, 0x42, 0xA1, 0xD1, 0x28, 0x14, 0x0A, 0x08, 0xA3, 0x10, 0x00, 
  0x00, 0xFC, 0xFF, 0x00, 0x00, 0x00, 0x42, 0xA1, 0x50, 0xE8, 0x17, 0x0A, 
  0x08, 0xA1, 0x10, 0x00, 0x00, 0xFC, 0xFF, 0x03, 0x00, 0x00, 0x02, 0xA1, 
  0x50, 0x28, 0x10, 0x08, 0x08, 0xA1, 0x10, 0x00, 0x00, 0xFC, 0xFF, 0x07, 
  0x00, 0x00, 0x42, 0xA1, 0x50, 0x68, 0x14, 0x8A, 0x08, 0xA1, 0x10, 0x00, 
  0x00, 0xFC, 0xFF, 0x0F, 0x00, 0x00, 0x3C, 0x9E, 0x50, 0xC8, 0xE3, 0x71, 
  0x1C, 0x21, 0x1F, 0x83, 0x00, 0xFC, 0x0F, 0x0C, 0x00, 0x00, 0x00, 0x00, 
  0x00, 0x00, 0x00, 0x00, 0x00, 0x00, 0x10, 0x00, 0x00, 0xFC, 0x1F, 0x0E, 
  0x00, 0x00, 0x00, 0x00, 0x00, 0x00, 0x00, 0x00, 0x00, 0x80, 0x18, 0x00, 
  0x00, 0x00, 0x1F, 0x06, 0x00, 0x00, 0x00, 0x00, 0x00, 0x00, 0x00, 0x00, 
  0x00, 0x00, 0x0F, 0x00, 0x00, 0x00, 0x1F, 0x00, 0x00, 0x00, 0x00, 0x00, 
  0x00, 0x00, 0x00, 0x00, 0x00, 0x00, 0x00, 0x00, 0x00, 0x00, 0x1F, 0x00, 
  0x00, 0x00, 0x00, 0x00, 0x00, 0x00, 0x00, 0x00, 0x00, 0x00, 0x00, 0x00, 
  0x00, 0x00, 0x04, 0x00, 0x00, 0x00, 0x00, 0x00, 0x00, 0x00, 0x00, 0x00, 
  0x00, 0x00, 0x00, 0x00, };
