#define a5558da50bf54a09e61cc6c6baa38d32vOoMAZ7c17wf0ZlI_width 128
#define a5558da50bf54a09e61cc6c6baa38d32vOoMAZ7c17wf0ZlI_height 64
static char a5558da50bf54a09e61cc6c6baa38d32vOoMAZ7c17wf0ZlI_bits[] = {
  0x00, 0x00, 0x00, 0x00, 0x00, 0x00, 0x00, 0x00, 0x00, 0x00, 0x00, 0x00, 
  0x00, 0x00, 0x00, 0x00, 0x00, 0x00, 0x00, 0x00, 0x00, 0x00, 0x00, 0x00, 
  0x00, 0x00, 0x00, 0x00, 0x00, 0x00, 0x00, 0x00, 0x00, 0x00, 0x00, 0x00, 
  0x00, 0x00, 0x00, 0x00, 0x00, 0x00, 0x00, 0x00, 0x00, 0x00, 0x00, 0x00, 
  0x00, 0x00, 0x00, 0x00, 0x00, 0x00, 0x00, 0x00, 0x00, 0x00, 0x00, 0x00, 
  0x00, 0x00, 0x00, 0x00, 0x00, 0x80, 0xFF, 0x01, 0x00, 0x00, 0x00, 0x00, 
  0x00, 0x00, 0x00, 0x00, 0x00, 0x00, 0x00, 0x00, 0x00, 0xE0, 0xFF, 0x0F, 
  0x00, 0x00, 0x00, 0x00, 0x00, 0x00, 0x00, 0x00, 0x00, 0x00, 0x00, 0x00, 
  0x00, 0xF8, 0xFF, 0x3F, 0x00, 0x00, 0x00, 0x00, 0x00, 0x00, 0x00, 0x00, 
  0x00, 0x00, 0x00, 0x00, 0x00, 0xFE, 0xFF, 0x7F, 0x00, 0x00, 0x00, 0x00, 
  0x00, 0x00, 0x00, 0x00, 0x00, 0x00, 0x00, 0x00, 0x00, 0xFF, 0xFF, 0xFF, 
  0x00, 0x00, 0x00, 0x00, 0x00, 0x00, 0x00, 0x00, 0x00, 0x00, 0x00, 0x00, 
  0x80, 0x7F, 0x00, 0xFC, 0x03, 0x00, 0x00, 0x00, 0x00, 0x00, 0x00, 0x00, 
  0x00, 0x00, 0x00, 0x00, 0xC0, 0x1F, 0x00, 0xF0, 0x07, 0x00, 0x00, 0x00, 
  0x00, 0x00, 0x00, 0x00, 0x00, 0x00, 0x00, 0x00, 0xE0, 0x0F, 0xFF, 0xE0, 
  0x07, 0x00, 0x00, 0x00, 0x00, 0x00, 0x00, 0x00, 0x00, 0x00, 0x00, 0x00, 
  0xF0, 0xC3, 0xFF, 0xC3, 0x0F, 0x03, 0x0C, 0x00, 0x00, 0x00, 0x30, 0xC0, 
  0x00, 0x00, 0x00, 0x06, 0xF0, 0xE1, 0xFF, 0x8F, 0x1F, 0x02, 0x06, 0x00, 
  0x00, 0x00, 0x20, 0x60, 0x00, 0x00, 0x00, 0x06, 0xF8, 0xF0, 0xFF, 0x1F, 
  0x1F, 0x06, 0x06, 0x00, 0x00, 0x00, 0x60, 0x60, 0x00, 0x00, 0x00, 0x00, 
  0x78, 0xF8, 0xFF, 0x3F, 0x3E, 0x06, 0x06, 0x00, 0x00, 0x00, 0x60, 0x60, 
  0x00, 0x00, 0x00, 0x00, 0x7C, 0xF8, 0x83, 0x3F, 0x3E, 0x06, 0x83, 0xC3, 
  0xC0, 0x06, 0x63, 0x30, 0x38, 0x30, 0x07, 0x06, 0x3C, 0xFC, 0x00, 0x7F, 
  0x3E, 0x0C, 0x43, 0x8C, 0x61, 0x06, 0xC3, 0x30, 0xC4, 0xF0, 0x0C, 0x06, 
  0x3C, 0x7C, 0x38, 0xFC, 0x7C, 0x0C, 0x03, 0x98, 0x61, 0x06, 0xC3, 0x30, 
  0x80, 0x71, 0x18, 0x06, 0x3C, 0x3E, 0x7C, 0xFC, 0x7C, 0x0C, 0x01, 0x98, 
  0x61, 0x06, 0xC3, 0x10, 0x80, 0x31, 0x18, 0x06, 0x3C, 0x3E, 0xFE, 0xF8, 
  0x7C, 0x88, 0x01, 0x1F, 0x33, 0x06, 0x83, 0x18, 0xF0, 0x31, 0x18, 0x06, 
  0x1E, 0x3E, 0xFF, 0xF8, 0x7C, 0x98, 0xC1, 0x18, 0x33, 0x06, 0x83, 0x19, 
  0x8C, 0x31, 0x18, 0x06, 0x1E, 0x3E, 0xFF, 0xF9, 0x78, 0x98, 0x60, 0x18, 
  0x16, 0x06, 0x83, 0x09, 0x86, 0x31, 0x18, 0x06, 0x1E, 0x3E, 0xFF, 0xF9, 
  0x7C, 0xD0, 0x60, 0x18, 0x1E, 0x06, 0x03, 0x0D, 0x86, 0x31, 0x18, 0x06, 
  0x3E, 0x3E, 0xFF, 0xF8, 0x7C, 0xD0, 0x60, 0x18, 0x1E, 0x06, 0x03, 0x0D, 
  0x86, 0x31, 0x18, 0x06, 0x3C, 0x3E, 0xFE, 0xF8, 0x7C, 0x70, 0xC0, 0x1E, 
  0x0C, 0xCC, 0x03, 0x07, 0xEC, 0x31, 0x18, 0x06, 0x3C, 0x7E, 0x7C, 0xFC, 
  0x7C, 0x60, 0x80, 0x19, 0x0C, 0x38, 0x03, 0x06, 0x98, 0x31, 0x18, 0x06, 
  0x3C, 0x7C, 0x00, 0x7E, 0x7C, 0x00, 0x00, 0x00, 0x06, 0x00, 0x00, 0x00, 
  0x00, 0x00, 0x00, 0x00, 0x7C, 0xFC, 0x01, 0x7F, 0x3E, 0x00, 0x00, 0x00, 
  0x06, 0x00, 0x00, 0x00, 0x00, 0x00, 0x00, 0x00, 0x78, 0xF8, 0x03, 0x3F, 
  0x3E, 0x00, 0x00, 0x80, 0x03, 0x00, 0x00, 0x00, 0x00, 0x00, 0x00, 0x00, 
  0xF8, 0xF0, 0x01, 0x1F, 0x3F, 0x00, 0x00, 0x80, 0x01, 0x00, 0x00, 0x00, 
  0x00, 0x00, 0x00, 0x00, 0xF8, 0xE0, 0x01, 0x1E, 0x1F, 0x00, 0x00, 0x00, 
  0x00, 0x00, 0x00, 0x00, 0x00, 0x00, 0x00, 0x00, 0xF0, 0xC1, 0x00, 0x80, 
  0x1F, 0x00, 0x00, 0x00, 0x00, 0x00, 0x00, 0x00, 0x00, 0x00, 0x00, 0x00, 
  0xE0, 0x03, 0x00, 0xE0, 0x0F, 0x00, 0x00, 0x00, 0x00, 0x00, 0x00, 0x00, 
  0x00, 0x00, 0x00, 0x00, 0xE0, 0x07, 0x00, 0xF0, 0x07, 0x00, 0x00, 0x00, 
  0x00, 0x00, 0x00, 0x00, 0x00, 0x00, 0x00, 0x00, 0xC0, 0x3F, 0x00, 0xF0, 
  0x03, 0x00, 0x00, 0x00, 0x00, 0x00, 0x00, 0x1E, 0x01, 0x20, 0x10, 0x00, 
  0x80, 0x3F, 0x00, 0xE0, 0x01, 0x00, 0x00, 0x00, 0x00, 0x00, 0x00, 0x3D, 
  0x01, 0x20, 0x10, 0x00, 0x00, 0x3F, 0x00, 0xC0, 0x00, 0x00, 0x00, 0x00, 
  0x00, 0x00, 0x00, 0xB3, 0x8F, 0x2F, 0xF6, 0x01, 0x00, 0x1C, 0x00, 0x00, 
  0x00, 0x00, 0x00, 0x00, 0x00, 0x00, 0x00, 0x33, 0x41, 0x28, 0x11, 0x02, 
  0x00, 0x00, 0x00, 0x00, 0x00, 0x00, 0x00, 0x00, 0x00, 0x00, 0x00, 0x33, 
  0x41, 0xA8, 0x10, 0x02, 0x00, 0x00, 0xC0, 0x03, 0x00, 0x00, 0x00, 0x00, 
  0x00, 0x00, 0x00, 0x3D, 0x41, 0xE0, 0x10, 0x02, 0x00, 0x00, 0xE0, 0x07, 
  0x00, 0x00, 0x00, 0x00, 0x00, 0x00, 0x00, 0x12, 0x51, 0x28, 0x11, 0x02, 
  0x00, 0x00, 0xF0, 0x07, 0x00, 0x00, 0x00, 0x00, 0x00, 0x00, 0x00, 0x1C, 
  0x8E, 0x27, 0xF6, 0x01, 0x00, 0x00, 0xF0, 0x0F, 0x00, 0x00, 0x00, 0x00, 
  0x00, 0x00, 0x00, 0x00, 0x00, 0x00, 0x00, 0x00, 0x00, 0x00, 0x70, 0x0E, 
  0x00, 0x00, 0x00, 0x00, 0x00, 0x00, 0x00, 0x00, 0x00, 0x00, 0x00, 0x00, 
  0x00, 0x00, 0x30, 0x0F, 0x00, 0x00, 0x00, 0x00, 0x00, 0x00, 0x00, 0x00, 
  0x00, 0x00, 0x00, 0x00, 0x00, 0xFE, 0xFF, 0x0F, 0x00, 0x00, 0x00, 0x00, 
  0x00, 0x00, 0x00, 0x00, 0x00, 0x00, 0x00, 0x00, 0x00, 0xFE, 0xFF, 0x07, 
  0x00, 0x00, 0x00, 0x00, 0x00, 0x00, 0x00, 0x00, 0x00, 0x00, 0x00, 0x00, 
  0x00, 0xFE, 0xFF, 0x03, 0x00, 0x00, 0x00, 0x00, 0x00, 0x00, 0x00, 0x00, 
  0x00, 0x00, 0x00, 0x00, 0x00, 0xFE, 0xFF, 0x07, 0x00, 0x00, 0x00, 0x00, 
  0x00, 0x00, 0x00, 0x00, 0x00, 0x00, 0x00, 0x00, 0x00, 0xFE, 0xFF, 0x1F, 
  0x00, 0x00, 0x00, 0x00, 0x00, 0x00, 0x00, 0x00, 0x00, 0x00, 0x00, 0x00, 
  0x00, 0xFF, 0xFF, 0x3F, 0x00, 0x00, 0x00, 0x00, 0x00, 0x00, 0x00, 0x00, 
  0x00, 0x00, 0x00, 0x00, 0x00, 0xFE, 0xFF, 0x7F, 0x00, 0x00, 0x00, 0x00, 
  0x00, 0x00, 0x00, 0x00, 0x00, 0x00, 0x00, 0x00, 0x00, 0xFF, 0x3F, 0x70, 
  0x00, 0x80, 0x00, 0x00, 0x20, 0x20, 0x00, 0x00, 0x00, 0x00, 0x00, 0x00, 
  0x00, 0xFF, 0x3F, 0x70, 0x00, 0x80, 0x00, 0x00, 0x20, 0x00, 0x00, 0x00, 
  0x00, 0x00, 0x00, 0x00, 0x00, 0xFE, 0x7F, 0x78, 0x00, 0x80, 0x8F, 0xC7, 
  0xF3, 0x31, 0x3A, 0x3E, 0x00, 0x00, 0x00, 0x00, 0x00, 0x00, 0x7F, 0x38, 
  0x00, 0x80, 0x50, 0x28, 0x24, 0x20, 0x46, 0x21, 0x00, 0x00, 0x00, 0x00, 
  0x00, 0x00, 0x7F, 0x00, 0x00, 0x80, 0x50, 0x28, 0x24, 0x20, 0x42, 0x21, 
  0x00, 0x00, 0x00, 0x00, 0x00, 0x00, 0x3F, 0x00, 0x00, 0x80, 0x50, 0x28, 
  0x24, 0x20, 0x42, 0x21, 0x00, 0x00, 0x00, 0x00, 0x00, 0x00, 0x1E, 0x00, 
  0x00, 0x80, 0x50, 0x28, 0x24, 0x22, 0x42, 0x21, 0x00, 0x00, 0x00, 0x00, 
  0x00, 0x00, 0x00, 0x00, 0x00, 0x80, 0x8F, 0xC7, 0xC3, 0x71, 0x42, 0x3E, 
  0x06, 0x83, 0x01, 0x00, 0x00, 0x00, 0x00, 0x00, 0x00, 0x00, 0x00, 0x00, 
  0x00, 0x00, 0x00, 0x20, 0x00, 0x00, 0x00, 0x00, 0x00, 0x00, 0x00, 0x00, 
  0x00, 0x00, 0x00, 0x00, 0x00, 0x00, 0x00, 0x31, 0x00, 0x00, 0x00, 0x00, 
  0x00, 0x00, 0x00, 0x00, 0x00, 0x00, 0x00, 0x00, 0x00, 0x00, 0x00, 0x1E, 
  0x00, 0x00, 0x00, 0x00, };
