#define 5ee7fccc3b4e4a658bba8de5719bddaeAHMhlGx0Eeh9Gw8i_width 128
#define 5ee7fccc3b4e4a658bba8de5719bddaeAHMhlGx0Eeh9Gw8i_height 64
static char 5ee7fccc3b4e4a658bba8de5719bddaeAHMhlGx0Eeh9Gw8i_bits[] = {
  0x00, 0x00, 0x00, 0x00, 0x00, 0x00, 0x00, 0x00, 0x00, 0x00, 0x00, 0x00, 
  0x00, 0x00, 0x00, 0x00, 0x00, 0x00, 0x00, 0x00, 0x00, 0x00, 0x00, 0x00, 
  0x00, 0x00, 0x00, 0x00, 0x00, 0x00, 0x00, 0x00, 0x00, 0x00, 0x00, 0x00, 
  0x00, 0x00, 0x00, 0x00, 0x00, 0x00, 0x00, 0x00, 0x00, 0x00, 0x00, 0x00, 
  0x00, 0x00, 0x00, 0x00, 0x00, 0x00, 0x00, 0x00, 0x00, 0x00, 0x00, 0x00, 
  0x00, 0x00, 0x00, 0x00, 0x00, 0x00, 0x00, 0x00, 0x00, 0x00, 0x00, 0x00, 
  0x00, 0x00, 0x00, 0x00, 0x00, 0x00, 0x00, 0x00, 0x00, 0x00, 0x00, 0x00, 
  0x00, 0x00, 0x00, 0x00, 0x00, 0x00, 0x00, 0x00, 0x00, 0x00, 0x00, 0x00, 
  0x00, 0x00, 0xFF, 0x01, 0x00, 0x00, 0x00, 0x00, 0x00, 0x00, 0x00, 0x00, 
  0x00, 0x00, 0x00, 0x00, 0x00, 0xC0, 0xFF, 0x0F, 0x00, 0x00, 0x00, 0x00, 
  0x00, 0x00, 0x00, 0x00, 0x00, 0x00, 0x00, 0x00, 0x00, 0xF0, 0xFF, 0x1F, 
  0x00, 0x00, 0x00, 0x00, 0x00, 0x00, 0x00, 0x00, 0x00, 0x00, 0x00, 0x00, 
  0x00, 0xF8, 0xFF, 0x7F, 0x00, 0x00, 0x00, 0x00, 0x00, 0x00, 0x00, 0x00, 
  0x00, 0x00, 0x00, 0x00, 0x00, 0xFC, 0x00, 0xFE, 0x00, 0x00, 0x00, 0x00, 
  0x00, 0x00, 0x00, 0x00, 0x00, 0x00, 0x00, 0x00, 0x00, 0x3E, 0x78, 0xF8, 
  0x01, 0x00, 0x00, 0x00, 0x00, 0x00, 0x00, 0x00, 0x00, 0x00, 0x00, 0x00, 
  0x00, 0x1F, 0xFF, 0xE1, 0x01, 0x00, 0x00, 0x00, 0x00, 0x00, 0x00, 0x00, 
  0x00, 0x00, 0x00, 0x00, 0x00, 0x8F, 0xFF, 0xE7, 0x03, 0x00, 0x00, 0x00, 
  0x00, 0x00, 0x00, 0x00, 0x00, 0x00, 0x00, 0x00, 0x80, 0xC7, 0xFF, 0xCF, 
  0x03, 0x00, 0x00, 0x00, 0x00, 0x00, 0x00, 0x00, 0x00, 0x00, 0x00, 0x00, 
  0x80, 0xE3, 0xFF, 0x9F, 0x07, 0x00, 0x00, 0x00, 0x00, 0x00, 0x00, 0x00, 
  0x00, 0x00, 0x00, 0x00, 0xC0, 0xE3, 0x03, 0x9F, 0x07, 0x00, 0x00, 0x00, 
  0x00, 0x00, 0x00, 0x00, 0x00, 0x00, 0x00, 0x00, 0xC0, 0xF1, 0x30, 0x3E, 
  0x0F, 0x00, 0x00, 0x00, 0x00, 0x00, 0x00, 0x00, 0x00, 0x00, 0x00, 0x00, 
  0xC0, 0xF1, 0x7C, 0x3C, 0x0F, 0x00, 0x00, 0x00, 0x00, 0x00, 0x00, 0x00, 
  0x00, 0x00, 0x00, 0x00, 0xC0, 0xF1, 0xFC, 0x3C, 0x0F, 0x80, 0x80, 0x00, 
  0x00, 0x00, 0x02, 0x02, 0x00, 0x10, 0x00, 0x00, 0xC0, 0x71, 0xFE, 0x3C, 
  0x0F, 0x00, 0x41, 0x00, 0x00, 0x00, 0x04, 0x01, 0x00, 0x10, 0x00, 0x00, 
  0xE0, 0x71, 0xFE, 0x3C, 0x0F, 0x00, 0x41, 0x00, 0x00, 0x00, 0x04, 0x01, 
  0x00, 0x00, 0x00, 0x00, 0xC0, 0xF1, 0xFE, 0x3C, 0x0F, 0x00, 0x41, 0x00, 
  0x00, 0x00, 0x04, 0x01, 0x00, 0x00, 0x00, 0x00, 0xC0, 0xF1, 0x7C, 0x3C, 
  0x0F, 0x00, 0x22, 0x3C, 0xC3, 0x82, 0x88, 0xF0, 0xE8, 0x10, 0x00, 0x00, 
  0xC0, 0xF1, 0x31, 0x3E, 0x0F, 0x00, 0x22, 0x42, 0x42, 0x82, 0x88, 0x08, 
  0x19, 0x11, 0x00, 0x00, 0xC0, 0xE3, 0x03, 0x9F, 0x07, 0x00, 0x22, 0x40, 
  0x42, 0x82, 0x88, 0x00, 0x09, 0x12, 0x00, 0x00, 0x80, 0xE3, 0x07, 0x9F, 
  0x07, 0x00, 0x12, 0x78, 0x24, 0x82, 0x48, 0xE0, 0x09, 0x12, 0x00, 0x00, 
  0x80, 0xC7, 0x03, 0xCF, 0x07, 0x00, 0x14, 0x44, 0x24, 0x82, 0x50, 0x10, 
  0x09, 0x12, 0x00, 0x00, 0x00, 0x8F, 0x03, 0xE6, 0x03, 0x00, 0x14, 0x42, 
  0x28, 0x82, 0x50, 0x08, 0x09, 0x12, 0x00, 0x00, 0x00, 0x0F, 0x00, 0xF0, 
  0x01, 0x00, 0x14, 0x62, 0x18, 0xC2, 0x50, 0x88, 0x09, 0x12, 0x00, 0x00, 
  0x00, 0x3E, 0x00, 0xF8, 0x01, 0x00, 0x08, 0x5C, 0x10, 0xBC, 0x20, 0x70, 
  0x09, 0x12, 0x00, 0x00, 0x00, 0xFC, 0x00, 0xF8, 0x00, 0x00, 0x00, 0x00, 
  0x08, 0x00, 0x00, 0x00, 0x00, 0x00, 0x00, 0x00, 0x00, 0xF8, 0x00, 0x70, 
  0x00, 0x00, 0x00, 0x00, 0x08, 0x00, 0x00, 0x00, 0x00, 0x00, 0x00, 0x00, 
  0x00, 0x70, 0x00, 0x00, 0x00, 0x00, 0x00, 0x00, 0x06, 0x00, 0x00, 0x00, 
  0x00, 0x00, 0x00, 0x00, 0x00, 0x00, 0x00, 0x00, 0x00, 0x00, 0x00, 0x00, 
  0x02, 0x00, 0x00, 0x00, 0x00, 0x00, 0x00, 0x00, 0x00, 0x00, 0xC0, 0x03, 
  0x00, 0x00, 0x00, 0x00, 0x00, 0x00, 0x00, 0x00, 0x00, 0x00, 0x00, 0x00, 
  0x00, 0x00, 0xE0, 0x03, 0x00, 0x00, 0x00, 0x00, 0x00, 0x00, 0x00, 0x00, 
  0x00, 0x00, 0x00, 0x00, 0x00, 0x00, 0xF0, 0x07, 0x00, 0x00, 0x00, 0x00, 
  0x00, 0x00, 0x00, 0x00, 0x00, 0x00, 0x00, 0x00, 0x00, 0x00, 0x70, 0x07, 
  0x00, 0x00, 0x00, 0x00, 0x00, 0x00, 0x00, 0x00, 0x00, 0x00, 0x00, 0x00, 
  0x00, 0x00, 0xF8, 0x07, 0x00, 0x00, 0x00, 0x00, 0x00, 0x00, 0x00, 0x00, 
  0x00, 0x00, 0x00, 0x00, 0x00, 0xF8, 0xFF, 0x03, 0x00, 0x00, 0x00, 0x00, 
  0x00, 0x00, 0x00, 0x00, 0x00, 0x00, 0x00, 0x00, 0x00, 0xF8, 0xFF, 0x03, 
  0x00, 0x00, 0x00, 0x00, 0x00, 0x00, 0x00, 0x00, 0x00, 0x00, 0x00, 0x00, 
  0x00, 0xF0, 0xFF, 0x07, 0x00, 0x00, 0x00, 0x00, 0x00, 0x00, 0x00, 0x00, 
  0x00, 0x00, 0x00, 0x00, 0x00, 0xF8, 0xFF, 0x0F, 0x00, 0x00, 0x00, 0x00, 
  0x00, 0x00, 0x00, 0x00, 0x00, 0x00, 0x00, 0x00, 0x00, 0xF8, 0xFF, 0x1F, 
  0x00, 0x00, 0x00, 0x00, 0x00, 0x00, 0x00, 0x00, 0x00, 0x00, 0x00, 0x00, 
  0x00, 0xF8, 0x3F, 0x38, 0x00, 0x00, 0x00, 0x00, 0x00, 0x00, 0x00, 0x00, 
  0x00, 0x00, 0x00, 0x00, 0x00, 0xF8, 0x7F, 0x38, 0x00, 0x00, 0x00, 0x00, 
  0x00, 0x00, 0x00, 0x00, 0x00, 0x00, 0x00, 0x00, 0x00, 0xF0, 0x7F, 0x1C, 
  0x00, 0x00, 0x00, 0x00, 0x00, 0x00, 0x00, 0x00, 0x00, 0x00, 0x00, 0x00, 
  0x00, 0x00, 0x7E, 0x08, 0x00, 0x00, 0x00, 0x00, 0x00, 0x00, 0x00, 0x00, 
  0x00, 0x00, 0x00, 0x00, 0x00, 0x00, 0x7E, 0x00, 0x00, 0x00, 0x00, 0x00, 
  0x00, 0x00, 0x00, 0x00, 0x00, 0x00, 0x00, 0x00, 0x00, 0x00, 0x3C, 0x00, 
  0x00, 0x00, 0x00, 0x00, 0x00, 0x00, 0x00, 0x00, 0x00, 0x00, 0x00, 0x00, 
  0x00, 0x00, 0x00, 0x00, 0x00, 0x00, 0x00, 0x00, 0x00, 0x00, 0x00, 0x00, 
  0x00, 0x00, 0x00, 0x00, 0x00, 0x00, 0x00, 0x00, 0x00, 0x00, 0x00, 0x00, 
  0x00, 0x00, 0x00, 0x00, 0x00, 0x00, 0x00, 0x00, 0x00, 0x00, 0x00, 0x00, 
  0x00, 0x00, 0x00, 0x00, 0x00, 0x00, 0x00, 0x00, 0x00, 0x00, 0x00, 0x00, 
  0x00, 0x00, 0x00, 0x00, 0x00, 0x00, 0x00, 0x00, 0x00, 0x00, 0x00, 0x00, 
  0x00, 0x00, 0x00, 0x00, 0xE0, 0x01, 0x00, 0x00, 0x00, 0x81, 0x00, 0x00, 
  0x20, 0x00, 0x00, 0x40, 0x60, 0x02, 0x00, 0x00, 0x10, 0x01, 0x00, 0x00, 
  0x00, 0x01, 0x00, 0x00, 0x20, 0x00, 0x00, 0x00, 0x10, 0x00, 0x00, 0x00, 
  0x10, 0x39, 0xCF, 0x73, 0xBC, 0xC7, 0x78, 0x3C, 0xF0, 0x38, 0x40, 0x65, 
  0x78, 0x03, 0x00, 0x00, 0x10, 0x44, 0x51, 0x8C, 0x22, 0x81, 0x88, 0x22, 
  0x20, 0x44, 0xC0, 0x45, 0x10, 0x02, 0x00, 0x00, 0x10, 0x44, 0x51, 0xFC, 
  0x02, 0x81, 0x88, 0x22, 0x20, 0x44, 0xC0, 0x45, 0x10, 0x02, 0x00, 0x00, 
  0x10, 0x45, 0x51, 0x8C, 0x22, 0x89, 0x88, 0x22, 0x20, 0x45, 0x80, 0x42, 
  0x10, 0x02, 0x00, 0x00, 0xE0, 0x38, 0x51, 0x74, 0x1C, 0xC6, 0x89, 0x3C, 
  0xC0, 0x38, 0x80, 0xE2, 0x38, 0x87, 0x20, 0x08, 0x00, 0x00, 0x00, 0x00, 
  0x00, 0x00, 0x00, 0x22, 0x00, 0x00, 0x00, 0x00, 0x00, 0x00, 0x00, 0x00, 
  0x00, 0x00, 0x00, 0x00, 0x00, 0x00, 0x00, 0x1C, 0x00, 0x00, 0x00, 0x00, 
  0x00, 0x00, 0x00, 0x00, };
